<svg width="39" height="39" viewBox="0 0 39 39" fill="none" xmlns="http://www.w3.org/2000/svg">
<g clip-path="url(#clip0_278_274340)">
<path fill-rule="evenodd" clip-rule="evenodd" d="M23.5 19C21.567 19 20 17.433 20 15.5V0H19V15.5C19 17.433 17.433 19 15.5 19H0V20H15.5C17.433 20 19 21.567 19 23.5V39H20V23.5C20 21.567 21.567 20 23.5 20H39V19H23.5ZM19.5 21.4364C19.9286 20.6073 20.6073 19.9286 21.4364 19.5C20.6073 19.0714 19.9286 18.3927 19.5 17.5636C19.0714 18.3927 18.3927 19.0714 17.5636 19.5C18.3927 19.9286 19.0714 20.6073 19.5 21.4364Z" fill="white" fill-opacity="0.07"/>
</g>
<defs>
<clipPath id="clip0_278_274340">
<rect width="39" height="39" fill="white"/>
</clipPath>
</defs>
</svg>
